<?xml version="1.0" standalone="no"?>
<!DOCTYPE svg PUBLIC "-//W3C//DTD SVG 1.1//EN" "http://www.w3.org/Graphics/SVG/1.1/DTD/svg11.dtd" >
<svg xmlns="http://www.w3.org/2000/svg">
<metadata></metadata>
<defs>
<font id="OdebrechtSlabRegular" horiz-adv-x="1126" >
<font-face units-per-em="2048" ascent="1536" descent="-512" />
<missing-glyph horiz-adv-x="368" />
<glyph unicode="&#xfb01;" horiz-adv-x="1196" d="M31 834v174l137 16v49q0 85 21.5 148.5t69.5 112.5t133 74.5t206 25.5q81 0 204 -19.5t185 -44.5l-24 -190q-58 17 -157 29t-177 12q-113 0 -154 -38.5t-41 -109.5v-49h613v-805h118v-219h-487v219h102v615h-346v-615h113v-219h-496v219h117v615h-137z" />
<glyph unicode="&#xfb02;" horiz-adv-x="1196" d="M31 834v174l137 16v49q0 85 21.5 148.5t69.5 112.5t133 74.5t206 25.5q157 0 260 -33h189v-1182h118v-219h-487v219h102v979q-72 23 -151 23q-113 0 -154 -38.5t-41 -109.5v-49h225v-190h-225v-615h113v-219h-496v219h117v615h-137z" />
<glyph unicode="&#xfb03;" horiz-adv-x="1806" d="M31 834v174l137 16v96q0 164 75.5 239t248.5 75q70 0 178 -19l-23 -205q-72 11 -94 11q-66 0 -92.5 -36t-26.5 -112v-49h346v49q0 85 21 148.5t69 112.5t133 74.5t207 25.5q81 0 204 -19.5t185 -44.5l-24 -190q-59 17 -158 29t-176 12q-113 0 -153.5 -38.5t-40.5 -109.5 v-49h612v-805h117v-219h-486v219h103v615h-346v-615h112v-219h-481v219h102v615h-346v-615h113v-219h-496v219h117v615h-137z" />
<glyph unicode="&#xfb04;" horiz-adv-x="1806" d="M31 834v174l137 16v96q0 164 75.5 239t248.5 75q70 0 178 -19l-23 -205q-72 11 -94 11q-66 0 -92.5 -36t-26.5 -112v-49h346v49q0 85 21 148.5t69 112.5t133 74.5t207 25.5q155 0 258 -33h191v-1182h117v-219h-486v219h103v979q-72 23 -152 23q-113 0 -153.5 -38.5 t-40.5 -109.5v-49h225v-190h-225v-615h112v-219h-481v219h102v615h-346v-615h113v-219h-496v219h117v615h-137z" />
<glyph horiz-adv-x="0" />
<glyph horiz-adv-x="2048" />
<glyph horiz-adv-x="0" />
<glyph horiz-adv-x="0" />
<glyph unicode="&#xd;" horiz-adv-x="368" />
<glyph unicode=" "  horiz-adv-x="368" />
<glyph unicode="&#x09;" horiz-adv-x="368" />
<glyph unicode="&#xa0;" horiz-adv-x="368" />
<glyph unicode="!" horiz-adv-x="440" d="M86 0v297h266v-297h-266zM86 1434h266l-14 -983h-236z" />
<glyph unicode="&#x22;" horiz-adv-x="849" d="M86 1393h266l-30 -359h-205zM496 1393h266l-31 -359h-205z" />
<glyph unicode="#" horiz-adv-x="1255" d="M90 209l16 174h205l29 256h-205l17 174h204l23 211h190l-22 -211h225l23 211h188l-22 -211h204l-16 -174h-205l-29 -256h205l-16 -174h-205l-25 -209h-188l23 209h-226l-22 -209h-191l25 209h-205zM502 383h225l27 256h-226z" />
<glyph unicode="$" horiz-adv-x="1269" d="M106 55v344h222v-145q176 -39 307 -39q113 0 171 45.5t58 118.5q0 35 -17.5 64t-38 46.5t-67.5 36.5t-73.5 27t-88.5 25q-24 7 -36 10q-416 117 -416 436q0 95 35 168.5t98.5 119t145 70t180.5 29.5v186h112v-186q193 -6 428 -76v-342h-221v154q-148 31 -270 31 q-103 0 -157 -40t-54 -106q0 -42 22.5 -75.5t66.5 -58t93.5 -41.5t120.5 -34q434 -99 434 -413q0 -197 -127.5 -306t-335.5 -122v-187h-112v187q-248 3 -480 73z" />
<glyph unicode="%" horiz-adv-x="1556" d="M76 1098q0 140 76 219.5t217 79.5q142 0 217.5 -79.5t75.5 -219.5q0 -142 -75 -221.5t-218 -79.5q-141 0 -217 80t-76 221zM242 1098q0 -83 32.5 -125.5t94.5 -42.5q129 0 129 168t-129 168q-62 0 -94.5 -42.5t-32.5 -125.5zM311 0l758 1393h174l-758 -1393h-174z M893 295q0 141 76 221t217 80q143 0 218 -79.5t75 -221.5q0 -141 -75.5 -221t-217.5 -80q-141 0 -217 80.5t-76 220.5zM1059 295q0 -83 32.5 -125.5t94.5 -42.5q129 0 129 168t-129 168q-62 0 -94.5 -42.5t-32.5 -125.5z" />
<glyph unicode="&#x26;" horiz-adv-x="1443" d="M84 365q0 114 67 205.5t248 191.5q-79 99 -114 164t-35 139q0 84 35 152t94 110t132.5 64t154.5 22q179 0 281 -89.5t102 -250.5q0 -89 -61 -173t-218 -171l277 -264q81 119 100 252h250q-12 -107 -58 -220t-120 -210l157 -164l-172 -189l-174 181q-193 -135 -446 -135 q-251 0 -375.5 104.5t-124.5 280.5zM367 408q0 -84 62.5 -142.5t174.5 -58.5q151 0 262 80l-331 342q-168 -100 -168 -221zM510 1075q0 -52 26.5 -97t81.5 -104q181 103 181 209q0 77 -43.5 112.5t-98.5 35.5q-77 0 -112 -46.5t-35 -109.5z" />
<glyph unicode="'" horiz-adv-x="440" d="M86 1393h266l-30 -359h-205z" />
<glyph unicode="(" horiz-adv-x="675" d="M94 696q0 261 92.5 515.5t268.5 467.5h174q-269 -466 -269 -983q0 -252 63.5 -489.5t205.5 -493.5h-174q-176 212 -268.5 469t-92.5 514z" />
<glyph unicode=")" horiz-adv-x="675" d="M45 -287q143 255 206.5 492.5t63.5 490.5q0 521 -270 983h176q176 -213 268.5 -467.5t92.5 -515.5q0 -257 -92.5 -514t-268.5 -469h-176z" />
<glyph unicode="*" horiz-adv-x="839" d="M68 1085l45 150l249 -92l-18 250h152l-21 -250l250 92l45 -150l-258 -30l170 -197l-119 -92l-145 238l-144 -238l-118 92l172 197z" />
<glyph unicode="+" horiz-adv-x="1024" d="M86 432v221h315v314h222v-314h313v-221h-313v-315h-222v315h-315z" />
<glyph unicode="," horiz-adv-x="440" d="M86 0v297h266v-297l-127 -266h-82l52 266h-109z" />
<glyph unicode="-" horiz-adv-x="1024" d="M86 432v221h850v-221h-850z" />
<glyph unicode="." horiz-adv-x="440" d="M86 0v297h266v-297h-266z" />
<glyph unicode="/" horiz-adv-x="1105" d="M55 0l758 1393h236l-758 -1393h-236z" />
<glyph unicode="0" horiz-adv-x="1167" d="M66 707q0 125 13.5 225t49 192.5t92.5 154t149 98t214 36.5t214 -36.5t148.5 -98t92 -154t48.5 -192.5t13 -225q0 -127 -13 -229t-48.5 -197.5t-92 -159.5t-148.5 -102.5t-214 -38.5t-214 38.5t-149 102.5t-92.5 159.5t-49 197.5t-13.5 229zM348 707q0 -508 236 -508 q235 0 235 508q0 110 -11 193.5t-36.5 151.5t-72.5 104t-115 36t-115 -36t-73 -104t-37 -151.5t-11 -193.5z" />
<glyph unicode="1" horiz-adv-x="798" d="M31 0v219h225v926l-221 -10v188l362 80h125v-1184h226v-219h-717z" />
<glyph unicode="2" horiz-adv-x="1085" d="M45 0v254q158 100 275 188.5t188 157t114 131t58.5 109.5t15.5 94q0 60 -18 105t-43 69t-61 38.5t-64 18.5t-59 4q-101 0 -185 -30v-105h-221v277q135 55 237.5 78.5t229.5 23.5q227 0 346 -118t119 -304q0 -106 -36.5 -203t-111.5 -189.5t-172.5 -177.5t-234.5 -181v-4 h391v106h221v-342h-989z" />
<glyph unicode="3" horiz-adv-x="1064" d="M41 80v278h219v-125q101 -34 234 -34q71 0 123 19t78.5 49.5t38 61.5t11.5 64q0 193 -274 193h-184v221h172q73 0 125 18.5t79 50t38.5 66t11.5 74.5q0 71 -53.5 123.5t-165.5 52.5q-108 0 -215 -35v-123h-220v279q216 100 482 100q190 0 313 -96.5t123 -272.5 q0 -113 -63.5 -194t-178.5 -123v-4q139 -34 211 -127.5t72 -216.5q0 -193 -132.5 -296t-375.5 -103q-137 0 -244.5 22t-224.5 78z" />
<glyph unicode="4" horiz-adv-x="1167" d="M45 383v221q102 111 166.5 186.5t143.5 178.5t142 209.5t115 224.5h330v-799h178v-221h-178v-164h117v-219h-502v219h119v164h-631zM317 604h359v514h-4q-151 -274 -355 -514z" />
<glyph unicode="5" horiz-adv-x="1105" d="M61 82v260h220v-109q96 -34 215 -34q128 0 195 68t67 177q0 44 -12 84t-38 76.5t-75.5 58t-116.5 21.5q-75 0 -126.5 -23.5t-108.5 -74.5l-191 16l27 791h876v-344h-221v108h-424l-18 -340l4 -2q115 96 278 96q199 0 312.5 -116t113.5 -334q0 -235 -138.5 -358 t-387.5 -123q-120 0 -224.5 23t-226.5 79z" />
<glyph unicode="6" d="M66 614q0 799 608 799q176 0 344 -57v-307h-219v135q-47 8 -103 8q-153 0 -258.5 -113.5t-105.5 -290.5l4 -2q56 68 133 107t164 39q199 0 312.5 -126t113.5 -355q0 -218 -132.5 -344.5t-346.5 -126.5q-109 0 -196.5 34.5t-146 93.5t-97.5 140.5t-56.5 172.5t-17.5 193z M354.5 449q7.5 -70 27 -125.5t66.5 -90t117 -34.5q92 0 152.5 66t60.5 186q0 46 -9.5 86.5t-32.5 79t-67.5 61t-107.5 22.5q-112 0 -205 -110q-9 -71 -1.5 -141z" />
<glyph unicode="7" horiz-adv-x="1003" d="M51 1049v344h905v-191q-88 -153 -146.5 -265t-128 -268t-118.5 -322.5t-78 -346.5h-297q44 266 178.5 584t301.5 569v4h-398v-108h-219z" />
<glyph unicode="8" d="M45 348q0 232 281 346v4q-240 119 -240 342q0 91 40 163.5t108.5 117.5t154.5 68.5t182 23.5q91 0 174 -23t148.5 -67t105 -113t39.5 -155q0 -111 -60 -185t-181 -135v-4q141 -67 211.5 -152t70.5 -202q0 -100 -41 -177t-113.5 -124.5t-166 -71.5t-203.5 -24 q-105 0 -195 21.5t-161.5 64.5t-112.5 115.5t-41 166.5zM319 377q0 -84 62.5 -142.5t189.5 -58.5q122 0 179 50t57 126q0 26 -8.5 50.5t-18 41.5t-33 36.5t-36.5 29.5t-47 26t-45 21t-51 21t-46 18q-203 -80 -203 -219zM352 1047q0 -56 36.5 -102t88.5 -72.5t119 -43.5 q78 28 127 80t49 123q0 86 -62.5 135.5t-154.5 49.5q-82 0 -142.5 -46t-60.5 -124z" />
<glyph unicode="9" d="M66 942q0 218 133.5 344.5t347.5 126.5q109 0 196.5 -35t145.5 -94t97 -141t56 -172.5t17 -192.5q0 -798 -606 -798q-181 0 -344 57v305h219v-133q58 -10 102 -10q154 0 259 113t104 290l-5 2q-54 -66 -131 -104.5t-163 -38.5q-200 0 -314 126.5t-114 354.5zM348 942 q0 -46 9.5 -86.5t32.5 -79.5t67.5 -61.5t107.5 -22.5q112 0 205 111q9 71 1.5 141t-27 125t-66.5 89t-117 34q-92 0 -152.5 -65t-60.5 -185z" />
<glyph unicode=":" horiz-adv-x="440" d="M86 0v297h266v-297h-266zM86 645v297h266v-297h-266z" />
<glyph unicode=";" horiz-adv-x="440" d="M86 0v297h266v-297l-127 -266h-82l52 266h-109zM86 645v297h266v-297h-266z" />
<glyph unicode="&#x3c;" horiz-adv-x="983" d="M86 432v160l809 405v-235l-526 -250l526 -252v-235z" />
<glyph unicode="=" horiz-adv-x="1024" d="M86 227v222h850v-222h-850zM86 637v221h850v-221h-850z" />
<glyph unicode="&#x3e;" horiz-adv-x="983" d="M86 25v235l528 252l-528 250v235l809 -405v-160z" />
<glyph unicode="?" horiz-adv-x="983" d="M66 993v340q91 36 207 58t223 22q98 0 174.5 -24t121.5 -61t73.5 -88.5t39 -100t10.5 -101.5q0 -70 -19.5 -128t-50.5 -97.5t-68.5 -73.5t-75 -61.5t-68.5 -54t-50.5 -60t-19.5 -71.5v-62h-235v62q0 66 19 121.5t48 91t65 70t68.5 60t60 60.5t38.5 72q14 40 8 80 q-18 114 -195 114q-72 0 -153 -24v-144h-221zM311 0v297h267v-297h-267z" />
<glyph unicode="@" horiz-adv-x="1658" d="M41 518q0 176 62.5 328.5t171.5 259.5t262.5 168t330.5 61q206 0 377 -83t272 -236.5t101 -347.5q0 -110 -32 -206t-93 -169.5t-156.5 -115.5t-214.5 -42h-168v80h-2q-50 -52 -104.5 -73t-130.5 -21q-115 0 -180.5 68t-65.5 173q0 57 20 101.5t52 72t76.5 45t90 24.5 t95.5 7h149v54q0 59 -36 82.5t-117 23.5q-50 0 -109 -12v-86h-172v227q162 43 328 43q165 0 240 -55.5t75 -210.5v-379q63 0 114 23t83 59.5t53.5 85t30 96.5t8.5 96q0 156 -78.5 276.5t-210.5 184.5t-293 64q-291 0 -476 -185.5t-185 -480.5q0 -174 77.5 -315.5t216 -222 t310.5 -80.5l-16 -146q-163 0 -304 58.5t-240 160t-155.5 242.5t-56.5 303zM678 381q0 -50 34.5 -76t88.5 -26q87 0 153 49v164h-137q-139 0 -139 -111z" />
<glyph unicode="A" horiz-adv-x="1433" d="M31 0v219h127l315 952h-137v222h582l372 -1174h113v-219h-549v219h129l-59 203h-424l-68 -203h131v-219h-532zM557 627h317l-151 514h-2z" />
<glyph unicode="B" horiz-adv-x="1290" d="M31 0v219h116v952h-116v222h706q216 0 330.5 -93.5t114.5 -263.5q0 -111 -56.5 -194t-154.5 -119v-4q118 -35 185 -121t67 -217q0 -181 -114.5 -281t-330.5 -100h-747zM430 219h301q92 0 143.5 48.5t51.5 144.5q0 93 -53.5 142.5t-151.5 49.5h-291v-385zM430 823h277 q86 0 132 46.5t46 127.5q0 79 -46 126.5t-132 47.5h-277v-348z" />
<glyph unicode="C" horiz-adv-x="1249" d="M66 707q0 124 17 225t60.5 192.5t112.5 153.5t178 98.5t252 36.5q242 0 502 -78v-327h-221v157q-130 27 -258 27q-94 0 -162.5 -36.5t-108 -103.5t-58 -152t-18.5 -193q0 -508 347 -508q134 0 258 28v156h221v-328q-259 -75 -502 -75q-143 0 -252 38t-178 102.5 t-112.5 159t-60.5 198t-17 229.5z" />
<glyph unicode="D" horiz-adv-x="1351" d="M31 0v219h116v952h-116v222h637q140 0 247.5 -34t176.5 -93.5t112.5 -148t61.5 -188t18 -222.5q0 -125 -17.5 -227t-61.5 -193t-113 -153t-176.5 -98t-247.5 -36h-637zM430 219h238q77 0 134.5 25t92 66.5t56 106t29 133t7.5 157.5q0 112 -13 190.5t-47 143.5t-98.5 97.5 t-160.5 32.5h-238v-952z" />
<glyph unicode="E" horiz-adv-x="1167" d="M31 0v219h116v952h-116v222h1069v-344h-219v122h-451v-342h567v-221h-567v-389h451v123h219v-342h-1069z" />
<glyph unicode="F" horiz-adv-x="1136" d="M31 0v219h116v952h-116v222h1048v-344h-219v122h-430v-383h547v-221h-547v-348h117v-219h-516z" />
<glyph unicode="G" horiz-adv-x="1269" d="M66 707q0 124 17 225t60.5 192.5t112.5 153.5t178 98.5t252 36.5q242 0 502 -78v-327h-221v157q-130 27 -258 27q-94 0 -162.5 -36.5t-108 -103.5t-58 -152t-18.5 -193q0 -151 34 -258.5t113 -170.5t200 -63q101 0 196 37v244h-215v221h498v-641q-138 -49 -254.5 -72.5 t-247.5 -23.5q-620 0 -620 727z" />
<glyph unicode="H" horiz-adv-x="1392" d="M31 0v219h116v952h-116v222h516v-222h-117v-342h533v342h-119v222h518v-222h-119v-952h119v-219h-518v219h119v389h-533v-389h117v-219h-516z" />
<glyph unicode="I" horiz-adv-x="577" d="M31 0v219h116v952h-116v222h516v-222h-117v-952h117v-219h-516z" />
<glyph unicode="J" horiz-adv-x="761" d="M29 -2l22 219q72 -10 117 -10q77 0 120.5 37t43.5 127v800h-117v222h516v-222h-117v-800q0 -391 -368 -391q-132 0 -217 18z" />
<glyph unicode="K" horiz-adv-x="1392" d="M31 0v219h116v952h-116v222h516v-222h-117v-464l449 464h-107v222h569v-222h-127l-372 -372l407 -580h113v-219h-584v219h115l-262 385l-201 -198v-187h117v-219h-516z" />
<glyph unicode="L" d="M31 0v219h116v952h-116v222h516v-222h-117v-952h434v123h221v-342h-1054z" />
<glyph unicode="M" horiz-adv-x="1720" d="M31 0v219h116v952h-116v222h461l382 -924h5l358 924h453v-222h-119v-952h119v-219h-519v219h119v666h-4l-336 -885h-180l-358 885h-4v-666h124v-219h-501z" />
<glyph unicode="N" horiz-adv-x="1413" d="M31 0v219h116v952h-116v222h391l579 -922h5v700h-125v222h501v-222h-118v-1171h-289l-563 883h-4v-664h124v-219h-501z" />
<glyph unicode="O" horiz-adv-x="1372" d="M66 707q0 124 17 225t60.5 192.5t112.5 153.5t178 98.5t252 36.5t252 -36.5t177.5 -98.5t112 -153.5t60.5 -192.5t17 -225q0 -126 -17 -229t-60.5 -198t-112 -159.5t-177.5 -102.5t-252 -38q-103 0 -188.5 19.5t-148.5 55t-112 87t-81 112.5t-52.5 135.5t-29 152 t-8.5 165.5zM362 707q0 -74 5 -134t18 -120t36.5 -104t58.5 -79t87 -53t119 -18q80 0 138.5 27t93.5 71.5t55.5 112.5t27.5 137.5t7 159.5t-7 157.5t-27.5 132t-55.5 105t-93.5 65.5t-138.5 25t-138.5 -24.5t-94 -65.5t-56.5 -105.5t-28 -132t-7 -157.5z" />
<glyph unicode="P" horiz-adv-x="1269" d="M31 0v219h116v952h-116v222h710q219 0 340 -116t121 -321q0 -207 -120.5 -320.5t-340.5 -113.5h-311v-303h117v-219h-516zM430 741h281q93 0 147.5 54.5t54.5 160.5q0 103 -55 159t-147 56h-281v-430z" />
<glyph unicode="Q" horiz-adv-x="1372" d="M66 707q0 124 17 225t60.5 192.5t112.5 153.5t178 98.5t252 36.5t252 -36.5t177.5 -98.5t112 -153.5t60.5 -192.5t17 -225q0 -281 -110.5 -445t-322.5 -182q9 -26 84 -40q65 -11 138 -11h22q84 2 154 8v-252q-78 -9 -150 -9q-133 0 -244 32q-172 50 -247 172 q-126 7 -224 49t-161 107.5t-104 157.5t-57.5 193t-16.5 220zM362 707q0 -74 5 -134t18 -120t36.5 -104t58.5 -79t87 -53t119 -18q80 0 138.5 27t93.5 71.5t55.5 112.5t27.5 137.5t7 159.5t-7 157.5t-27.5 132t-55.5 105t-93.5 65.5t-138.5 25t-138.5 -24.5t-94 -65.5 t-56.5 -105.5t-28 -132t-7 -157.5z" />
<glyph unicode="R" horiz-adv-x="1331" d="M31 0v219h116v952h-116v222h710q219 0 340 -114.5t121 -317.5q0 -144 -69.5 -248.5t-192.5 -139.5l268 -354h92v-219h-536v219h88l-221 307h-201v-307h117v-219h-516zM430 748h277q93 0 149.5 53.5t56.5 159.5q0 102 -55 156t-147 54h-281v-423z" />
<glyph unicode="S" horiz-adv-x="1187" d="M66 55v344h221v-145q176 -39 307 -39q113 0 171 45.5t58 118.5q0 35 -17.5 64t-38 46.5t-67.5 36.5t-73.5 27t-88.5 25q-24 7 -36 10q-95 27 -170 64.5t-135 90t-92.5 124t-32.5 157.5q0 102 39.5 178.5t110.5 121.5t160 67t196 22q234 0 491 -78v-342h-219v154 q-150 31 -272 31q-103 0 -156 -40t-53 -106q0 -42 24 -75.5t72 -58t98.5 -41.5t122.5 -34q434 -99 434 -413q0 -144 -70.5 -242.5t-186.5 -143t-269 -44.5q-269 0 -528 75z" />
<glyph unicode="T" horiz-adv-x="1187" d="M51 1049v344h1086v-344h-222v122h-180v-952h117v-219h-516v219h117v952h-183v-122h-219z" />
<glyph unicode="U" horiz-adv-x="1392" d="M31 1171v222h516v-222h-117v-679q0 -49 6.5 -88.5t24 -79t46.5 -66t77.5 -43t113.5 -16.5q265 0 265 293v679h-119v222h518v-222h-119v-679q0 -134 -38.5 -233.5t-111.5 -160t-172 -89.5t-225 -29t-225 29t-172.5 89.5t-112.5 160t-39 233.5v679h-116z" />
<glyph unicode="V" horiz-adv-x="1413" d="M31 1171v222h557v-222h-148l283 -890h2l262 890h-147v222h542v-222h-108l-385 -1181h-361l-397 1181h-100z" />
<glyph unicode="W" horiz-adv-x="2007" d="M31 1171v222h557v-222h-142l191 -841h2l238 1063h299l251 -1063h3l178 841h-144v222h512v-222h-94l-287 -1181h-376l-213 889h-5l-198 -889h-375l-301 1181h-96z" />
<glyph unicode="X" horiz-adv-x="1433" d="M31 0v219h112l365 496l-340 456h-117v222h596v-222h-106l225 -317l219 317h-115v222h512v-222h-104l-348 -473l356 -479h117v-219h-612v219h122l-239 346l-236 -346h119v-219h-526z" />
<glyph unicode="Y" horiz-adv-x="1351" d="M31 1171v222h573v-222h-151l243 -481h4l244 481h-151v222h528v-222h-109l-395 -741v-211h117v-219h-516v219h117v211l-383 741h-121z" />
<glyph unicode="Z" horiz-adv-x="1146" d="M61 0v205l666 962v4h-410v-122h-221v344h969v-205l-657 -965v-4h462v123h220v-342h-1029z" />
<glyph unicode="[" horiz-adv-x="614" d="M86 -287v1966h481v-159h-198v-1649h198v-158h-481z" />
<glyph unicode="\" horiz-adv-x="1105" d="M55 1393h236l758 -1393h-236z" />
<glyph unicode="]" horiz-adv-x="614" d="M45 -129h201v1649h-201v159h481v-1966h-481v158z" />
<glyph unicode="^" horiz-adv-x="778" d="M86 1044l221 390h162l221 -390h-143l-158 244l-160 -244h-143z" />
<glyph unicode="_" horiz-adv-x="1024" d="M86 -123h850v-160h-850v160z" />
<glyph unicode="`" horiz-adv-x="593" d="M121 1434h252l112 -287h-204z" />
<glyph unicode="a" horiz-adv-x="1095" d="M55 287q0 90 38.5 156.5t104 102t139 52t157.5 16.5h186v72q0 76 -48 106.5t-151 30.5q-67 0 -141 -10v-102h-219v286q235 47 422 47q103 0 173.5 -15t124.5 -53t79.5 -106t25.5 -170v-481h119v-219h-385v102h-4q-116 -122 -287 -122q-65 0 -123.5 19t-106 55t-76 96.5 t-28.5 136.5zM322 317q0 -65 44.5 -99t114.5 -34q58 0 112.5 19.5t86.5 44.5v207h-152q-104 0 -155 -30t-51 -108z" />
<glyph unicode="b" horiz-adv-x="1146" d="M31 0v219h116v993h-116v222h383v-512h4q50 55 128.5 88.5t160.5 33.5q372 0 372 -532q0 -114 -21 -207.5t-65.5 -168t-121.5 -115.5t-181 -41q-78 0 -156 30.5t-131 83.5h-4l-47 -94h-321zM414 264q79 -65 184 -65q110 0 155.5 84t45.5 229q0 69 -9.5 122.5t-31.5 97.5 t-62.5 67.5t-97.5 23.5q-101 0 -184 -63v-496z" />
<glyph unicode="c" horiz-adv-x="993" d="M66 512q0 125 27 219.5t87.5 166.5t164 109t249.5 37q164 0 358 -49v-284h-221v102q-57 10 -137 10q-120 0 -183 -79t-63 -232t63 -233t183 -80q49 0 78.5 1.5t91 11t141.5 28.5l47 -211q-194 -49 -358 -49q-146 0 -249.5 37t-164 108.5t-87.5 166t-27 220.5z" />
<glyph unicode="d" horiz-adv-x="1146" d="M66 512q0 114 21 207t65.5 167.5t121.5 116t181 41.5q79 0 152 -30.5t120 -83.5h4v282h-117v222h383v-1215h119v-219h-385v102h-4q-48 -55 -126.5 -88.5t-160.5 -33.5q-374 0 -374 532zM348 512q0 -313 199 -313q109 0 184 65v496q-78 63 -184 63q-57 0 -97 -23.5 t-61.5 -67.5t-31 -97.5t-9.5 -122.5z" />
<glyph unicode="e" horiz-adv-x="1085" d="M66 512q0 124 28.5 219.5t89.5 167t164 108.5t246 37q231 0 333.5 -107t102.5 -312q0 -77 -14 -170h-668q6 -119 79 -187.5t210 -68.5q172 0 319 41l31 -211q-170 -49 -389 -49q-282 0 -407 137.5t-125 394.5zM348 623h406q6 38 6 61q0 70 -44 113t-138 43 q-107 0 -164 -57.5t-66 -159.5z" />
<glyph unicode="f" horiz-adv-x="700" d="M31 834v174l137 16v104q0 79 15 133.5t51 94.5t99.5 59t158.5 19q70 0 178 -19l-23 -205q-72 11 -94 11q-68 0 -93.5 -23t-25.5 -88v-86h215v-190h-215v-615h129v-219h-512v219h117v615h-137z" />
<glyph unicode="g" horiz-adv-x="1136" d="M41 -164q0 67 38 117.5t122 91.5v4q-65 40 -79 106q-4 17 -4 34q0 50 31 101q41 69 127 116v4q-77 38 -121 114t-44 172q0 173 115 260.5t317 87.5q82 0 147 -20h379v-160h-164v-2q60 -52 60 -166q0 -172 -115 -258t-307 -86q-63 0 -131 21q-26 -36 -34.5 -67t6 -52 t52.5 -23l336 -16q156 -6 239 -77t83 -195q0 -189 -150 -281t-463 -92q-227 0 -333.5 64.5t-106.5 201.5zM268 -119q0 -73 68 -101t188 -28q78 0 140 13t104.5 46t42.5 83q0 39 -30.5 64.5t-94.5 29.5l-348 20q-27 -25 -37.5 -36.5t-21.5 -36t-11 -54.5zM369 696 q0 -83 46.5 -122t127.5 -39q79 0 125.5 39.5t46.5 121.5q0 83 -47 124.5t-125 41.5q-174 0 -174 -166z" />
<glyph unicode="h" horiz-adv-x="1208" d="M31 0v219h116v993h-116v222h383v-543h4q143 153 334 153q151 0 229 -91t78 -253v-481h119v-219h-488v219h103v420q0 92 -38.5 138t-125.5 46q-94 0 -215 -78v-526h102v-219h-485z" />
<glyph unicode="i" horiz-adv-x="563" d="M31 0v219h116v584h-116v221h383v-805h118v-219h-501zM147 1151v283h267v-283h-267z" />
<glyph unicode="j" horiz-adv-x="522" d="M-68 -412l25 205q46 -10 94 -10q68 0 92.5 23.5t24.5 87.5v909h-137v221h403v-1149q0 -79 -14.5 -133t-50 -94t-98.5 -59t-158 -19q-93 0 -181 18zM168 1151v283h266v-283h-266z" />
<glyph unicode="k" horiz-adv-x="1228" d="M31 0v219h116v993h-116v222h383v-885l340 254h-88v221h512v-221h-125l-228 -170l277 -414h96v-219h-512v219h82l-168 270l-186 -143v-127h118v-219h-501z" />
<glyph unicode="l" horiz-adv-x="563" d="M31 0v219h116v993h-116v222h383v-1215h118v-219h-501z" />
<glyph unicode="m" horiz-adv-x="1822" d="M31 0v219h116v584h-116v221h383v-133h4q70 76 152 116q70 34 161 34q16 0 33 -1q182 -9 248 -166q151 170 354 170q151 0 229 -91t78 -253v-481h119v-219h-487v219h102v420q0 184 -164 184q-84 0 -201 -80q0 -14 1 -44.5t1 -47.5v-432h103v-219h-471v219h102v432 q-3 83 -44.5 127.5t-119.5 44.5q-37 0 -78 -14.5t-63.5 -27t-58.5 -36.5v-526h102v-219h-485z" />
<glyph unicode="n" horiz-adv-x="1208" d="M31 0v219h116v584h-116v221h383v-133h4q143 153 334 153q151 0 229 -91t78 -253v-481h119v-219h-488v219h103v420q0 92 -38.5 138t-125.5 46q-94 0 -215 -78v-526h102v-219h-485z" />
<glyph unicode="o" d="M66 512q0 532 497 532q496 0 496 -532t-496 -532q-497 0 -497 532zM348 512q0 -154 48 -233.5t167 -79.5t167 79.5t48 233.5q0 152 -48 231.5t-167 79.5t-167 -79.5t-48 -231.5z" />
<glyph unicode="p" horiz-adv-x="1146" d="M31 -190h116v993h-116v221h383v-102h4q50 55 128.5 88.5t160.5 33.5q372 0 372 -532q0 -114 -21 -207.5t-65.5 -168t-121.5 -115.5t-181 -41q-77 0 -150 30t-122 84h-4v-284h118v-220h-501v220zM414 264q79 -65 184 -65q110 0 155.5 84t45.5 229q0 69 -9.5 122.5 t-31.5 97.5t-62.5 67.5t-97.5 23.5q-101 0 -184 -63v-496z" />
<glyph unicode="q" horiz-adv-x="1085" d="M66 512q0 114 21 207t65.5 167.5t121.5 116t181 41.5q79 0 156 -30t132 -84h5l47 102h202v-1222h119v-220h-502v220h117v292h-4q-48 -55 -126.5 -88.5t-160.5 -33.5q-374 0 -374 532zM348 512q0 -313 199 -313q109 0 184 65v496q-78 63 -184 63q-57 0 -97 -23.5 t-61.5 -67.5t-31 -97.5t-9.5 -122.5z" />
<glyph unicode="r" horiz-adv-x="819" d="M31 0v219h116v584h-116v221h383v-164h4q56 78 148 131t206 53v-251q-98 0 -195 -22.5t-163 -55.5v-496h129v-219h-512z" />
<glyph unicode="s" horiz-adv-x="983" d="M55 29v282h221v-102q86 -16 216 -16q88 0 127.5 31t39.5 67q0 37 -40 59t-136 41q-75 13 -133 29t-114.5 43.5t-93 63.5t-59 89.5t-22.5 120.5q0 307 404 307q236 0 430 -49v-284h-219v104q-91 16 -195 16q-83 0 -118 -26.5t-35 -59.5q0 -38 34.5 -60.5t131.5 -43.5 q58 -13 87 -20t83 -23t83.5 -31t68.5 -41t59.5 -55t35.5 -70.5t15 -91.5q0 -165 -106.5 -247t-297.5 -82q-273 0 -467 49z" />
<glyph unicode="t" horiz-adv-x="768" d="M31 834v174l137 16l33 287h233v-287h256v-190h-256v-494q0 -74 35 -110.5t115 -36.5q45 0 94 10l22 -205q-86 -18 -208 -18q-173 0 -248.5 74.5t-75.5 238.5v541h-137z" />
<glyph unicode="u" horiz-adv-x="1208" d="M31 803v221h383v-641q0 -89 41.5 -136.5t122.5 -47.5q91 0 215 80v524h-134v221h400v-805h119v-219h-385v133h-5q-143 -153 -333 -153q-151 0 -229.5 91t-78.5 251v481h-116z" />
<glyph unicode="v" horiz-adv-x="1183" d="M31 803v221h495v-221h-116l208 -547h5l192 547h-113v221h451v-221h-74l-325 -813h-320l-321 813h-82z" />
<glyph unicode="w" horiz-adv-x="1654" d="M31 803v221h495v-221h-131l148 -514h4l192 735h219l205 -752h4l119 531h-112v221h450v-221h-80l-246 -813h-284l-187 579h-4l-164 -579h-284l-266 813h-78z" />
<glyph unicode="x" horiz-adv-x="1245" d="M31 0v219h86l299 318l-269 266h-96v221h547v-221h-86l174 -182l168 182h-80v221h420v-221h-84l-293 -297l287 -287h110v-219h-561v219h86l-188 197l-178 -197h90v-219h-432z" />
<glyph unicode="y" horiz-adv-x="1183" d="M31 803v221h495v-221h-116l213 -565h4l188 565h-113v221h451v-221h-74l-344 -832q-36 -87 -77 -155t-95.5 -126t-124.5 -89t-151 -31q-105 0 -181 18l23 211q55 -10 98 -10q77 0 137.5 51t88.5 137l-338 826h-84z" />
<glyph unicode="z" horiz-adv-x="962" d="M39 0v205l536 610v4h-299v-108h-221v313h844v-205l-530 -610v-4h338v106h219v-311h-887z" />
<glyph unicode="{" horiz-adv-x="696" d="M86 629v133q24 3 43 9t33 12.5t24.5 18.5t18 21t12 26.5t7 29t4 35t1.5 37.5v42q0 60 -10 192t-10 195q0 59 12.5 105t32.5 77t54 53.5t67 34.5t83 19t91 8.5t100 1.5v-112q-34 0 -51 -1.5t-41 -12t-35.5 -31.5t-20.5 -61t-9 -99q0 -62 13 -210t13 -212q0 -59 -15 -101.5 t-44.5 -69.5t-63 -42.5t-82.5 -28.5v-4q49 -13 82.5 -28.5t63 -42.5t44.5 -69t15 -101q0 -64 -13 -212t-13 -210q0 -59 9 -99t20.5 -61t35.5 -31.5t41 -12t51 -1.5v-113q-59 0 -100 1.5t-91 8.5t-83 19t-67 34.5t-54 53.5t-32.5 77t-12.5 105q0 63 10 195t10 192 q0 32 -0.5 47t-2 40.5t-5 38t-10 30.5t-17 27.5t-25.5 20t-35.5 16.5t-47.5 10z" />
<glyph unicode="|" horiz-adv-x="348" d="M86 -205v1802h174v-1802h-174z" />
<glyph unicode="}" horiz-adv-x="696" d="M45 -174q25 0 38 0.5t33 4.5t30.5 11.5t23.5 22.5t19.5 36.5t11 54t4.5 75.5q0 62 -13.5 210t-13.5 212q0 59 14.5 101t44 69t63.5 42.5t83 28.5v4q-49 13 -83 28.5t-63.5 42.5t-44 69.5t-14.5 101.5q0 64 13.5 212t13.5 210q0 43 -4.5 75.5t-11 54t-19.5 36.5 t-23.5 22.5t-30.5 11.5t-33 4.5t-38 0.5v112q60 0 101 -1.5t90.5 -8.5t83 -19t67.5 -34.5t53.5 -53.5t32 -77t12.5 -105q0 -63 -10 -195t-10 -192v-42t1.5 -37.5t4 -35t7 -29t12 -26.5t18 -21t24.5 -18.5t33 -12.5t43 -9v-133q-27 -4 -47.5 -10t-35.5 -16.5t-25.5 -20 t-17 -27.5t-10 -30.5t-5 -38t-2 -40.5t-0.5 -47q0 -60 10 -192t10 -195q0 -59 -12.5 -105t-32 -77t-53.5 -53.5t-67.5 -34.5t-83 -19t-90.5 -8.5t-101 -1.5v113z" />
<glyph unicode="~" horiz-adv-x="942" d="M74 598q99 203 221 203q55 0 199.5 -45t175.5 -45q25 0 39.5 2t40.5 18t53 49l67 -80q-70 -145 -168 -161q-20 -3 -43 0q-39 3 -178 41t-178 38q-35 0 -65.5 -16t-79.5 -67z" />
<glyph unicode="&#xa1;" horiz-adv-x="440" d="M86 -410l16 983h236l14 -983h-266zM86 727v297h266v-297h-266z" />
<glyph unicode="&#xa2;" horiz-adv-x="1044" d="M86 512q0 234 133.5 377.5t362.5 152.5v187h112v-189q134 -11 279 -75l-33 -205q-140 53 -246 61v-620q101 5 246 63l33 -205q-152 -67 -279 -75v-189h-112v187q-230 9 -363 152t-133 378zM369 512q0 -131 56.5 -211.5t156.5 -95.5v612q-100 -13 -156.5 -94.5 t-56.5 -210.5z" />
<glyph unicode="&#xa3;" horiz-adv-x="1187" d="M45 0v236h102v399h-102v127h102v262q0 102 37.5 178.5t105.5 121.5t155 67t194 22q234 0 491 -88v-332h-219v146q-137 39 -272 39q-115 0 -170 -45.5t-55 -128.5v-242h440v-127h-440v-399h497v106h219v-342h-1085z" />
<glyph unicode="&#xa4;" horiz-adv-x="1050" d="M143 928l17 16l162 -184q90 74 204 74q113 0 203 -74l160 184l18 -16l-159 -183q102 -96 102 -235q0 -68 -26.5 -129t-73.5 -105l155 -176l-18 -18l-158 178q-88 -72 -203 -72q-116 0 -204 72l-156 -178l-19 18l156 176q-98 95 -98 234q0 138 98 233zM229 510 q0 -122 87.5 -209.5t209.5 -87.5t210.5 88t88.5 209q0 122 -88.5 210.5t-210.5 88.5q-121 0 -209 -88.5t-88 -210.5z" />
<glyph unicode="&#xa5;" horiz-adv-x="1351" d="M31 1171v222h573v-222h-137l229 -450h4l228 450h-135v222h528v-222h-109l-333 -624h262v-127h-324v-201h117v-219h-516v219h117v201h-326v127h262l-334 624h-106z" />
<glyph unicode="&#xa6;" horiz-adv-x="348" d="M86 -205v819h174v-819h-174zM86 778v819h174v-819h-174z" />
<glyph unicode="&#xa7;" horiz-adv-x="1228" d="M92 696q0 214 166 326q-152 120 -152 309q0 102 40 178.5t111 121.5t160.5 67t196.5 22q142 0 270 -36.5t222 -96.5l-111 -219q-193 100 -381 100q-211 0 -211 -137q0 -25 12 -48t28.5 -40t46.5 -33.5t52.5 -26t61.5 -21.5t59 -17.5t58 -14.5q96 -23 168.5 -55t131 -80.5 t89.5 -118.5t31 -159q0 -214 -166 -328q151 -121 151 -307q0 -102 -40 -178.5t-111 -121.5t-160.5 -67t-196.5 -22q-143 0 -270.5 36t-220.5 97l111 219q197 -102 380 -102q211 0 211 139q0 30 -14 55.5t-41.5 45t-55 34t-69.5 27.5t-69 20t-68 17q-95 22 -168.5 55 t-131.5 82t-89 119t-31 159zM389 711q0 -30 14.5 -55t34.5 -41.5t52 -31.5t56.5 -23t59.5 -17q65 -16 127 -37q52 31 81.5 82.5t29.5 111.5q0 41 -22.5 71.5t-72.5 53t-79.5 31.5t-93.5 25q-16 4 -23 6q-49 -4 -74 -2q-90 -58 -90 -174z" />
<glyph unicode="&#xa8;" horiz-adv-x="983" d="M207 1198v205h190v-205h-190zM586 1198v205h190v-205h-190z" />
<glyph unicode="&#xa9;" horiz-adv-x="1566" d="M61 696q0 196 96.5 361t262.5 260.5t362 95.5q197 0 363 -95.5t263 -260.5t97 -361t-97 -361t-263 -260t-363 -95t-362.5 95t-262 260t-96.5 361zM182 696q0 -122 47.5 -234t127.5 -193t191.5 -129t233.5 -48t233.5 48t192 129t128.5 193t48 234t-47.5 232.5t-128.5 190 t-192.5 126.5t-233.5 47t-233.5 -47t-191.5 -126.5t-127.5 -190t-47.5 -232.5zM436 705q0 170 94 261t263 91q149 0 266 -82l-58 -121q-96 61 -198 61q-97 0 -147 -50.5t-50 -159.5q0 -234 197 -234q102 0 198 61l58 -118q-117 -82 -266 -82q-168 0 -262.5 97t-94.5 276z " />
<glyph unicode="&#xaa;" horiz-adv-x="569" d="M31 1038q1 43 21.5 74.5t53.5 47.5t67.5 23t72.5 7h94v33q0 37 -22 50t-74 13q-39 0 -66 -4v-47h-117v143q132 25 215 25q106 0 155.5 -36.5t49.5 -135.5v-236h58v-114h-199v51h-2q-48 -51 -115 -60q-7 0 -23 -1t-24 -1q-70 4 -107.5 49.5t-37.5 118.5zM170 1040 q0 -31 21.5 -47t54.5 -16q27 0 52.5 9.5t41.5 21.5v98h-72q-48 0 -73 -14.5t-25 -51.5z" />
<glyph unicode="&#xab;" horiz-adv-x="1443" d="M147 432v160l560 391v-252l-277 -219l277 -221v-250zM737 432v160l557 391v-252l-276 -219l276 -221v-250z" />
<glyph unicode="&#xac;" horiz-adv-x="1208" d="M127 432v221h952v-434h-219v213h-733z" />
<glyph unicode="&#xad;" horiz-adv-x="1105" d="M127 432v221h850v-221h-850z" />
<glyph unicode="&#xae;" horiz-adv-x="1566" d="M61 696q0 196 96.5 361t262.5 260.5t362 95.5q197 0 363 -95.5t263 -260.5t97 -361t-97 -361t-263 -260t-363 -95t-362.5 95t-262 260t-96.5 361zM182 696q0 -122 47.5 -234t127.5 -193t191.5 -129t233.5 -48t233.5 48t192 129t128.5 193t48 234t-47.5 232.5t-128.5 190 t-192.5 126.5t-233.5 47t-233.5 -47t-191.5 -126.5t-127.5 -190t-47.5 -232.5zM508 344v705h295q132 0 207 -64t75 -180q0 -85 -39 -141.5t-108 -77.5l176 -242h-199l-145 213h-100v-213h-162zM670 698h129q123 0 123 107q0 102 -119 102h-133v-209z" />
<glyph unicode="&#xaf;" horiz-adv-x="819" d="M76 1171v191h665v-191h-665z" />
<glyph unicode="&#xb0;" horiz-adv-x="532" d="M72 1188q0 80 56.5 137t137.5 57q80 0 137.5 -57.5t57.5 -136.5q0 -81 -57.5 -138t-137.5 -57q-82 0 -138 56.5t-56 138.5zM170 1188q0 -41 27.5 -68.5t68.5 -27.5t68.5 27.5t27.5 68.5t-27.5 68.5t-68.5 27.5t-68.5 -27.5t-27.5 -68.5z" />
<glyph unicode="&#xb1;" horiz-adv-x="1024" d="M86 41v219h315v195h-315v221h315v315h222v-315h313v-221h-313v-195h313v-219h-850z" />
<glyph unicode="&#xb2;" horiz-adv-x="559" d="M31 1106v133q186 117 254.5 193.5t68.5 138.5q0 36 -12 60.5t-33 35.5t-38.5 15t-37.5 4q-35 0 -88 -15v-51h-114v141q68 28 119 39.5t116 11.5q114 0 174 -59t60 -151q0 -102 -68 -188.5t-205 -182.5v-2h187v51h114v-174h-497z" />
<glyph unicode="&#xb3;" horiz-adv-x="555" d="M31 1145v141h114v-59q52 -17 113 -17q65 0 93 28.5t28 66.5q0 92 -131 92h-94v114h88q67 0 95 29.5t28 71.5q0 34 -27 59t-80 25q-54 0 -104 -17v-59h-115v141q110 51 246 51q95 0 157 -48.5t62 -135.5q0 -112 -121 -158v-2q70 -18 105.5 -64.5t35.5 -109.5 q0 -95 -68 -146.5t-190 -51.5q-129 0 -235 49z" />
<glyph unicode="&#xb4;" horiz-adv-x="593" d="M104 1147l113 287h254l-162 -287h-205z" />
<glyph unicode="&#xb5;" horiz-adv-x="1208" d="M-88 -412l25 205q46 -10 94 -10q66 0 91 35.5t25 111.5v873h-116v221h383v-641q0 -89 41.5 -136.5t122.5 -47.5q91 0 215 80v524h-134v221h400v-805h119v-219h-385v133h-5q-93 -96 -194 -121q-108 -27 -180 13v-76q0 -89 -12.5 -152t-44.5 -115.5t-92 -79.5t-150 -30 q-80 -7 -203 16z" />
<glyph unicode="&#xb6;" horiz-adv-x="1157" d="M61 999q0 183 112.5 288.5t299.5 105.5h596v-99h-168v-1198h168v-96h-244v4h-37v1290h-126v-690h-189q-185 0 -298.5 109t-113.5 286z" />
<glyph unicode="&#xb7;" horiz-adv-x="512" d="M127 502v266h235v-266h-235z" />
<glyph unicode="&#xb8;" horiz-adv-x="602" d="M127 -395l16 100q50 -12 90 -12q48 0 69.5 17.5t21.5 45.5q0 32 -27 55t-78 29v160h143v-92q50 -6 95 -47t45 -113q0 -75 -62 -121.5t-161 -46.5q-66 0 -152 25z" />
<glyph unicode="&#xb9;" horiz-adv-x="423" d="M33 1106v115h110v450l-110 -4v98l184 43h66v-587h110v-115h-360z" />
<glyph unicode="&#xba;" horiz-adv-x="561" d="M31 1137q0 266 252 266q247 0 247 -266q0 -267 -247 -267q-252 0 -252 267zM178 1137q0 -74 23.5 -113t81.5 -39q56 0 79 39t23 113q0 73 -23 111t-79 38q-58 0 -81.5 -37.5t-23.5 -111.5z" />
<glyph unicode="&#xbb;" horiz-adv-x="1443" d="M147 41v250l277 221l-277 219v252l560 -391v-160zM737 41v250l277 221l-277 219v252l557 -391v-160z" />
<glyph unicode="&#xbc;" horiz-adv-x="1638" d="M135 696v115h111v451l-111 -5v99l184 43h66v-588h111v-115h-361zM438 0l758 1393h82l-758 -1393h-82zM963 190v115q102 111 167 198t115 199h172v-397h88v-115h-88v-75h58v-115h-256v115h57v75h-313zM1106 305h170v248h-2q-67 -126 -168 -248z" />
<glyph unicode="&#xbd;" horiz-adv-x="1638" d="M135 696v115h111v451l-111 -5v99l184 43h66v-588h111v-115h-361zM362 0l758 1393h82l-758 -1393h-82zM1008 0v133q185 117 253 193t68 139q0 115 -121 115q-36 0 -86 -15v-51h-114v141q125 52 233 52q115 0 175.5 -59t60.5 -152q0 -101 -68 -187.5t-205 -183.5v-2h187v51 h114v-174h-497z" />
<glyph unicode="&#xbe;" horiz-adv-x="1638" d="M133 735v142h115v-60q49 -16 112 -16q65 0 93 28t28 66q0 92 -131 92h-94v115h88q67 0 95 29t28 71q0 34 -27 59t-80 25q-57 0 -104 -16v-60h-115v142q110 51 246 51q95 0 157 -48.5t62 -135.5q0 -112 -121 -158v-2q70 -18 106 -65t36 -109q0 -95 -68 -147t-190 -52 q-130 0 -236 49zM459 0l758 1393h81l-757 -1393h-82zM963 190v115q102 111 167 198t115 199h172v-397h88v-115h-88v-75h58v-115h-256v115h57v75h-313zM1106 305h170v248h-2q-67 -126 -168 -248z" />
<glyph unicode="&#xbf;" horiz-adv-x="1024" d="M86 -16q0 70 19.5 128.5t50.5 98t69 73t76 61t69 54.5t50.5 60.5t19.5 72.5v62h236v-62q0 -66 -17.5 -120.5t-45.5 -91t-61.5 -67.5t-67 -57t-61.5 -51.5t-45.5 -59t-17.5 -73.5q0 -151 203 -151q63 0 154 26v144h219v-340q-90 -37 -205 -58.5t-225 -21.5q-98 0 -174 24 t-121.5 61t-74.5 88t-39.5 99.5t-10.5 100.5zM424 727v297h266v-297h-266z" />
<glyph unicode="&#xc0;" horiz-adv-x="1433" d="M31 0v219h127l315 952h-137v222h582l372 -1174h113v-219h-549v219h129l-59 203h-424l-68 -203h131v-219h-532zM414 1782h252l112 -287h-205zM557 627h317l-151 514h-2z" />
<glyph unicode="&#xc1;" horiz-adv-x="1433" d="M31 0v219h127l315 952h-137v222h582l372 -1174h113v-219h-549v219h129l-59 203h-424l-68 -203h131v-219h-532zM557 627h317l-151 514h-2zM651 1495l113 287h254l-162 -287h-205z" />
<glyph unicode="&#xc2;" horiz-adv-x="1433" d="M31 0v219h127l315 952h-137v222h582l372 -1174h113v-219h-549v219h129l-59 203h-424l-68 -203h131v-219h-532zM444 1495l181 277h161l181 -277h-158l-102 127l-103 -127h-160zM557 627h317l-151 514h-2z" />
<glyph unicode="&#xc3;" horiz-adv-x="1433" d="M31 0v219h127l315 952h-137v222h582l372 -1174h113v-219h-549v219h129l-59 203h-424l-68 -203h131v-219h-532zM360 1577q91 186 222 186q55 0 148 -45t124 -45q65 0 133 84l68 -110q-84 -164 -201 -164q-39 0 -132.5 42t-131.5 42q-36 0 -66 -16.5t-80 -69.5zM557 627 h317l-151 514h-2z" />
<glyph unicode="&#xc4;" horiz-adv-x="1433" d="M31 0v219h127l315 952h-137v222h582l372 -1174h113v-219h-549v219h129l-59 203h-424l-68 -203h131v-219h-532zM434 1505v205h191v-205h-191zM557 627h317l-151 514h-2zM813 1505v205h191v-205h-191z" />
<glyph unicode="&#xc5;" horiz-adv-x="1433" d="M31 0v219h127l315 952h-137v222h582l372 -1174h113v-219h-549v219h129l-59 203h-424l-68 -203h131v-219h-532zM512 1679q0 80 57 137.5t138 57.5q79 0 136.5 -57.5t57.5 -137.5q0 -81 -57 -137.5t-137 -56.5q-82 0 -138.5 56t-56.5 138zM557 627h317l-151 514h-2z M610 1679q0 -41 28 -68.5t69 -27.5t68.5 27.5t27.5 68.5t-27.5 69t-68.5 28t-69 -28t-28 -69z" />
<glyph unicode="&#xc6;" horiz-adv-x="1875" d="M20 0v219h125l471 952h-141v222h1333v-344h-219v122h-450v-342h567v-221h-567v-389h450v123h219v-342h-952v387h-346l-180 -387h-310zM604 606h252v533h-4z" />
<glyph unicode="&#xc7;" horiz-adv-x="1249" d="M66 707q0 124 17 225t60.5 192.5t112.5 153.5t178 98.5t252 36.5q242 0 502 -78v-327h-221v157q-130 27 -258 27q-94 0 -162.5 -36.5t-108 -103.5t-58 -152t-18.5 -193q0 -508 347 -508q134 0 258 28v156h221v-328q-222 -64 -416 -73v-74q49 -6 94 -47t45 -113 q0 -75 -62 -121.5t-161 -46.5q-65 0 -151 25l16 100q49 -12 90 -12q90 0 90 63q0 32 -26.5 55t-77.5 29v142q-129 7 -228 48t-161.5 105.5t-102 157t-55.5 193t-16 221.5z" />
<glyph unicode="&#xc8;" horiz-adv-x="1167" d="M31 0v219h116v952h-116v222h1069v-344h-219v122h-451v-342h567v-221h-567v-389h451v123h219v-342h-1069zM371 1782h252l112 -287h-205z" />
<glyph unicode="&#xc9;" horiz-adv-x="1167" d="M31 0v219h116v952h-116v222h1069v-344h-219v122h-451v-342h567v-221h-567v-389h451v123h219v-342h-1069zM508 1495l113 287h253l-161 -287h-205z" />
<glyph unicode="&#xca;" horiz-adv-x="1167" d="M31 0v219h116v952h-116v222h1069v-344h-219v122h-451v-342h567v-221h-567v-389h451v123h219v-342h-1069zM377 1495l180 277h162l180 -277h-158l-102 127l-102 -127h-160z" />
<glyph unicode="&#xcb;" horiz-adv-x="1167" d="M31 0v219h116v952h-116v222h1069v-344h-219v122h-451v-342h567v-221h-567v-389h451v123h219v-342h-1069zM326 1505v205h190v-205h-190zM705 1505v205h190v-205h-190z" />
<glyph unicode="&#xcc;" horiz-adv-x="577" d="M27 1782h252l112 -287h-205zM31 0v219h116v952h-116v222h516v-222h-117v-952h117v-219h-516z" />
<glyph unicode="&#xcd;" horiz-adv-x="577" d="M31 0v219h116v952h-116v222h516v-222h-117v-952h117v-219h-516zM186 1495l113 287h254l-162 -287h-205z" />
<glyph unicode="&#xce;" horiz-adv-x="577" d="M27 1495l180 277h162l180 -277h-158l-102 127l-103 -127h-159zM31 0v219h116v952h-116v222h516v-222h-117v-952h117v-219h-516z" />
<glyph unicode="&#xcf;" horiz-adv-x="577" d="M4 1505v205h191v-205h-191zM31 0v219h116v952h-116v222h516v-222h-117v-952h117v-219h-516zM383 1505v205h190v-205h-190z" />
<glyph unicode="&#xd0;" horiz-adv-x="1351" d="M31 0v219h116v408h-116v159h116v385h-116v222h637q140 0 247.5 -34t176.5 -93.5t112.5 -148t61.5 -188t18 -222.5q0 -125 -17.5 -227t-61.5 -193t-113 -153t-176.5 -98t-247.5 -36h-637zM430 219h238q77 0 134.5 25t92 66.5t56 106t29 133t7.5 157.5q0 112 -13 190.5 t-47 143.5t-98.5 97.5t-160.5 32.5h-238v-385h209v-159h-209v-408z" />
<glyph unicode="&#xd1;" horiz-adv-x="1413" d="M31 0v219h116v952h-116v222h391l579 -922h5v700h-125v222h501v-222h-118v-1171h-289l-563 883h-4v-664h124v-219h-501zM379 1577q91 186 221 186q55 0 148 -45t124 -45q66 0 134 84l67 -110q-84 -164 -201 -164q-39 0 -132.5 42t-131.5 42q-36 0 -65.5 -16.5t-79.5 -69.5 z" />
<glyph unicode="&#xd2;" horiz-adv-x="1372" d="M66 707q0 124 17 225t60.5 192.5t112.5 153.5t178 98.5t252 36.5t252 -36.5t177.5 -98.5t112 -153.5t60.5 -192.5t17 -225q0 -126 -17 -229t-60.5 -198t-112 -159.5t-177.5 -102.5t-252 -38q-103 0 -188.5 19.5t-148.5 55t-112 87t-81 112.5t-52.5 135.5t-29 152 t-8.5 165.5zM362 707q0 -74 5 -134t18 -120t36.5 -104t58.5 -79t87 -53t119 -18q80 0 138.5 27t93.5 71.5t55.5 112.5t27.5 137.5t7 159.5t-7 157.5t-27.5 132t-55.5 105t-93.5 65.5t-138.5 25t-138.5 -24.5t-94 -65.5t-56.5 -105.5t-28 -132t-7 -157.5zM446 1782h252 l113 -287h-205z" />
<glyph unicode="&#xd3;" horiz-adv-x="1372" d="M66 707q0 124 17 225t60.5 192.5t112.5 153.5t178 98.5t252 36.5t252 -36.5t177.5 -98.5t112 -153.5t60.5 -192.5t17 -225q0 -126 -17 -229t-60.5 -198t-112 -159.5t-177.5 -102.5t-252 -38q-103 0 -188.5 19.5t-148.5 55t-112 87t-81 112.5t-52.5 135.5t-29 152 t-8.5 165.5zM362 707q0 -74 5 -134t18 -120t36.5 -104t58.5 -79t87 -53t119 -18q80 0 138.5 27t93.5 71.5t55.5 112.5t27.5 137.5t7 159.5t-7 157.5t-27.5 132t-55.5 105t-93.5 65.5t-138.5 25t-138.5 -24.5t-94 -65.5t-56.5 -105.5t-28 -132t-7 -157.5zM594 1495l113 287 h254l-162 -287h-205z" />
<glyph unicode="&#xd4;" horiz-adv-x="1372" d="M66 707q0 124 17 225t60.5 192.5t112.5 153.5t178 98.5t252 36.5t252 -36.5t177.5 -98.5t112 -153.5t60.5 -192.5t17 -225q0 -126 -17 -229t-60.5 -198t-112 -159.5t-177.5 -102.5t-252 -38q-103 0 -188.5 19.5t-148.5 55t-112 87t-81 112.5t-52.5 135.5t-29 152 t-8.5 165.5zM362 707q0 -74 5 -134t18 -120t36.5 -104t58.5 -79t87 -53t119 -18q80 0 138.5 27t93.5 71.5t55.5 112.5t27.5 137.5t7 159.5t-7 157.5t-27.5 132t-55.5 105t-93.5 65.5t-138.5 25t-138.5 -24.5t-94 -65.5t-56.5 -105.5t-28 -132t-7 -157.5zM426 1495l180 277 h162l180 -277h-157l-103 127l-102 -127h-160z" />
<glyph unicode="&#xd5;" horiz-adv-x="1372" d="M66 707q0 124 17 225t60.5 192.5t112.5 153.5t178 98.5t252 36.5t252 -36.5t177.5 -98.5t112 -153.5t60.5 -192.5t17 -225q0 -126 -17 -229t-60.5 -198t-112 -159.5t-177.5 -102.5t-252 -38q-103 0 -188.5 19.5t-148.5 55t-112 87t-81 112.5t-52.5 135.5t-29 152 t-8.5 165.5zM336 1577q91 186 221 186q55 0 148 -45t124 -45q66 0 134 84l67 -110q-84 -164 -201 -164q-39 0 -132.5 42t-131.5 42q-36 0 -65.5 -16.5t-79.5 -69.5zM362 707q0 -74 5 -134t18 -120t36.5 -104t58.5 -79t87 -53t119 -18q80 0 138.5 27t93.5 71.5t55.5 112.5 t27.5 137.5t7 159.5t-7 157.5t-27.5 132t-55.5 105t-93.5 65.5t-138.5 25t-138.5 -24.5t-94 -65.5t-56.5 -105.5t-28 -132t-7 -157.5z" />
<glyph unicode="&#xd6;" horiz-adv-x="1372" d="M66 707q0 124 17 225t60.5 192.5t112.5 153.5t178 98.5t252 36.5t252 -36.5t177.5 -98.5t112 -153.5t60.5 -192.5t17 -225q0 -126 -17 -229t-60.5 -198t-112 -159.5t-177.5 -102.5t-252 -38q-103 0 -188.5 19.5t-148.5 55t-112 87t-81 112.5t-52.5 135.5t-29 152 t-8.5 165.5zM362 707q0 -74 5 -134t18 -120t36.5 -104t58.5 -79t87 -53t119 -18q80 0 138.5 27t93.5 71.5t55.5 112.5t27.5 137.5t7 159.5t-7 157.5t-27.5 132t-55.5 105t-93.5 65.5t-138.5 25t-138.5 -24.5t-94 -65.5t-56.5 -105.5t-28 -132t-7 -157.5zM410 1505v205h190 v-205h-190zM788 1505v205h191v-205h-191z" />
<glyph unicode="&#xd7;" horiz-adv-x="1077" d="M102 262l281 281l-281 280l156 156l281 -281l280 281l156 -156l-281 -280l281 -281l-156 -156l-280 281l-281 -281z" />
<glyph unicode="&#xd8;" horiz-adv-x="1372" d="M51 -8l150 188q-135 180 -135 527q0 124 17 225t60.5 192.5t112.5 153.5t178 98.5t252 36.5q246 0 399 -117l152 195l82 -66l-158 -198q144 -168 144 -520q0 -126 -17 -229t-60.5 -198t-112 -159.5t-177.5 -102.5t-252 -38q-264 0 -412 129l-141 -183zM362 707 q0 -184 37 -275l521 655q-75 91 -234 91q-80 0 -138.5 -23.5t-94 -62.5t-56.5 -101t-28 -128.5t-7 -155.5zM444 319q72 -104 242 -104q80 0 138.5 25.5t93.5 67.5t55.5 107.5t27.5 133.5t7 158q0 180 -39 276z" />
<glyph unicode="&#xd9;" horiz-adv-x="1392" d="M31 1171v222h516v-222h-117v-679q0 -49 6.5 -88.5t24 -79t46.5 -66t77.5 -43t113.5 -16.5q265 0 265 293v679h-119v222h518v-222h-119v-679q0 -134 -38.5 -233.5t-111.5 -160t-172 -89.5t-225 -29t-225 29t-172.5 89.5t-112.5 160t-39 233.5v679h-116zM416 1782h252 l112 -287h-205z" />
<glyph unicode="&#xda;" horiz-adv-x="1392" d="M31 1171v222h516v-222h-117v-679q0 -49 6.5 -88.5t24 -79t46.5 -66t77.5 -43t113.5 -16.5q265 0 265 293v679h-119v222h518v-222h-119v-679q0 -134 -38.5 -233.5t-111.5 -160t-172 -89.5t-225 -29t-225 29t-172.5 89.5t-112.5 160t-39 233.5v679h-116zM604 1495l113 287 h254l-162 -287h-205z" />
<glyph unicode="&#xdb;" horiz-adv-x="1392" d="M31 1171v222h516v-222h-117v-679q0 -49 6.5 -88.5t24 -79t46.5 -66t77.5 -43t113.5 -16.5q265 0 265 293v679h-119v222h518v-222h-119v-679q0 -134 -38.5 -233.5t-111.5 -160t-172 -89.5t-225 -29t-225 29t-172.5 89.5t-112.5 160t-39 233.5v679h-116zM438 1495l180 277 h162l181 -277h-158l-103 127l-102 -127h-160z" />
<glyph unicode="&#xdc;" horiz-adv-x="1392" d="M31 1171v222h516v-222h-117v-679q0 -49 6.5 -88.5t24 -79t46.5 -66t77.5 -43t113.5 -16.5q265 0 265 293v679h-119v222h518v-222h-119v-679q0 -134 -38.5 -233.5t-111.5 -160t-172 -89.5t-225 -29t-225 29t-172.5 89.5t-112.5 160t-39 233.5v679h-116zM410 1505v205h190 v-205h-190zM788 1505v205h191v-205h-191z" />
<glyph unicode="&#xdd;" horiz-adv-x="1351" d="M31 1171v222h573v-222h-151l243 -481h4l244 481h-151v222h528v-222h-109l-395 -741v-211h117v-219h-516v219h117v211l-383 741h-121zM623 1495l112 287h254l-162 -287h-204z" />
<glyph unicode="&#xde;" horiz-adv-x="1269" d="M31 0v219h116v952h-116v222h399v-263h311q219 0 340 -115t121 -319q0 -207 -120.5 -321.5t-340.5 -114.5h-311v-260h-399zM430 481h281q93 0 147.5 54.5t54.5 160.5q0 103 -55 159t-147 56h-281v-430z" />
<glyph unicode="&#xdf;" horiz-adv-x="1320" d="M31 834v174l137 16q0 94 27.5 166.5t72.5 118t109.5 74.5t132 40t145.5 11q99 0 177.5 -16.5t140 -52t94.5 -96t33 -143.5q0 -52 -18 -98t-44.5 -76.5t-57.5 -59.5t-57.5 -50t-44.5 -46t-18 -48q0 -35 22.5 -55t65.5 -38q177 -65 246.5 -148.5t69.5 -191.5 q0 -90 -36.5 -157t-100 -104.5t-138.5 -55.5t-162 -18q-139 0 -264 40l33 205q124 -41 223 -41q88 0 126 39t38 88q0 33 -15 61t-43 49t-53 34.5t-59.5 29.5t-46.5 23q-90 49 -124 91t-34 120q0 43 19 82t46 69t54.5 59.5t46.5 68t19 81.5q0 73 -46.5 108.5t-113.5 35.5 q-199 0 -199 -256v-967h-383v219h117v615h-137z" />
<glyph unicode="&#xe0;" horiz-adv-x="1095" d="M55 287q0 90 38.5 156.5t104 102t139 52t157.5 16.5h186v72q0 76 -48 106.5t-151 30.5q-67 0 -141 -10v-102h-219v286q235 47 422 47q103 0 173.5 -15t124.5 -53t79.5 -106t25.5 -170v-481h119v-219h-385v102h-4q-116 -122 -287 -122q-65 0 -123.5 19t-106 55t-76 96.5 t-28.5 136.5zM295 1434h252l112 -287h-204zM322 317q0 -65 44.5 -99t114.5 -34q58 0 112.5 19.5t86.5 44.5v207h-152q-104 0 -155 -30t-51 -108z" />
<glyph unicode="&#xe1;" horiz-adv-x="1095" d="M55 287q0 90 38.5 156.5t104 102t139 52t157.5 16.5h186v72q0 76 -48 106.5t-151 30.5q-67 0 -141 -10v-102h-219v286q235 47 422 47q103 0 173.5 -15t124.5 -53t79.5 -106t25.5 -170v-481h119v-219h-385v102h-4q-116 -122 -287 -122q-65 0 -123.5 19t-106 55t-76 96.5 t-28.5 136.5zM322 317q0 -65 44.5 -99t114.5 -34q58 0 112.5 19.5t86.5 44.5v207h-152q-104 0 -155 -30t-51 -108zM444 1147l113 287h254l-162 -287h-205z" />
<glyph unicode="&#xe2;" horiz-adv-x="1095" d="M55 287q0 90 38.5 156.5t104 102t139 52t157.5 16.5h186v72q0 76 -48 106.5t-151 30.5q-67 0 -141 -10v-102h-219v286q235 47 422 47q103 0 173.5 -15t124.5 -53t79.5 -106t25.5 -170v-481h119v-219h-385v102h-4q-116 -122 -287 -122q-65 0 -123.5 19t-106 55t-76 96.5 t-28.5 136.5zM291 1147l180 276h162l180 -276h-158l-102 127l-102 -127h-160zM322 317q0 -65 44.5 -99t114.5 -34q58 0 112.5 19.5t86.5 44.5v207h-152q-104 0 -155 -30t-51 -108z" />
<glyph unicode="&#xe3;" horiz-adv-x="1095" d="M55 287q0 90 38.5 156.5t104 102t139 52t157.5 16.5h186v72q0 76 -48 106.5t-151 30.5q-67 0 -141 -10v-102h-219v286q235 47 422 47q103 0 173.5 -15t124.5 -53t79.5 -106t25.5 -170v-481h119v-219h-385v102h-4q-116 -122 -287 -122q-65 0 -123.5 19t-106 55t-76 96.5 t-28.5 136.5zM199 1229q91 186 221 186q55 0 148 -45t124 -45q65 0 133 84l68 -111q-84 -163 -201 -163q-39 0 -132.5 42t-131.5 42q-36 0 -65.5 -16.5t-79.5 -69.5zM322 317q0 -65 44.5 -99t114.5 -34q58 0 112.5 19.5t86.5 44.5v207h-152q-104 0 -155 -30t-51 -108z" />
<glyph unicode="&#xe4;" horiz-adv-x="1095" d="M55 287q0 90 38.5 156.5t104 102t139 52t157.5 16.5h186v72q0 76 -48 106.5t-151 30.5q-67 0 -141 -10v-102h-219v286q235 47 422 47q103 0 173.5 -15t124.5 -53t79.5 -106t25.5 -170v-481h119v-219h-385v102h-4q-116 -122 -287 -122q-65 0 -123.5 19t-106 55t-76 96.5 t-28.5 136.5zM266 1198v205h191v-205h-191zM322 317q0 -65 44.5 -99t114.5 -34q58 0 112.5 19.5t86.5 44.5v207h-152q-104 0 -155 -30t-51 -108zM645 1198v205h191v-205h-191z" />
<glyph unicode="&#xe5;" horiz-adv-x="1095" d="M55 287q0 90 38.5 156.5t104 102t139 52t157.5 16.5h186v72q0 76 -48 106.5t-151 30.5q-67 0 -141 -10v-102h-219v286q235 47 422 47q103 0 173.5 -15t124.5 -53t79.5 -106t25.5 -170v-481h119v-219h-385v102h-4q-116 -122 -287 -122q-65 0 -123.5 19t-106 55t-76 96.5 t-28.5 136.5zM322 317q0 -65 44.5 -99t114.5 -34q58 0 112.5 19.5t86.5 44.5v207h-152q-104 0 -155 -30t-51 -108zM358 1331q0 80 57 137.5t138 57.5q79 0 137 -58t58 -137q0 -81 -57.5 -137.5t-137.5 -56.5q-82 0 -138.5 56t-56.5 138zM457 1331q0 -41 27.5 -68.5 t68.5 -27.5t68.5 27.5t27.5 68.5t-27.5 68.5t-68.5 27.5t-68.5 -27.5t-27.5 -68.5z" />
<glyph unicode="&#xe6;" horiz-adv-x="1699" d="M55 295q0 74 26.5 131.5t69 92t101 56.5t116 30.5t121.5 8.5h191v56q0 88 -44 120.5t-155 32.5q-67 0 -141 -10v-102h-219v286q240 47 403 47q126 0 204 -29.5t132 -101.5q118 131 348 131q231 0 334 -107t103 -312q0 -70 -15 -170h-659q5 -121 74.5 -188.5t205.5 -67.5 q173 0 320 41l31 -211q-170 -49 -390 -49q-169 0 -277.5 47.5t-170.5 142.5q-95 -110 -189 -150t-202 -40q-149 0 -233.5 88.5t-84.5 226.5zM322 317q0 -65 44.5 -99t114.5 -34q61 0 118.5 22t96.5 56q-16 91 -16 193h-178q-180 0 -180 -138zM971 623h397q6 38 6 61 q0 70 -44 113t-138 43q-204 0 -221 -217z" />
<glyph unicode="&#xe7;" horiz-adv-x="993" d="M66 512q0 125 27 219.5t87.5 166.5t164 109t249.5 37q164 0 358 -49v-284h-221v102q-57 10 -137 10q-120 0 -183 -79t-63 -232t63 -233t183 -80q49 0 78.5 1.5t91 11t141.5 28.5l47 -211q-167 -44 -315 -47v-74q49 -6 94 -47t45 -113q0 -75 -62.5 -121.5t-162.5 -46.5 q-64 0 -150 25l17 100q50 -12 90 -12q90 0 90 63q0 32 -26.5 55t-77.5 29v146q-117 11 -201 53t-133 111.5t-71.5 158.5t-22.5 203z" />
<glyph unicode="&#xe8;" horiz-adv-x="1085" d="M66 512q0 124 28.5 219.5t89.5 167t164 108.5t246 37q231 0 333.5 -107t102.5 -312q0 -77 -14 -170h-668q6 -119 79 -187.5t210 -68.5q172 0 319 41l31 -211q-170 -49 -389 -49q-282 0 -407 137.5t-125 394.5zM315 1434h252l113 -287h-205zM348 623h406q6 38 6 61 q0 70 -44 113t-138 43q-107 0 -164 -57.5t-66 -159.5z" />
<glyph unicode="&#xe9;" horiz-adv-x="1085" d="M66 512q0 124 28.5 219.5t89.5 167t164 108.5t246 37q231 0 333.5 -107t102.5 -312q0 -77 -14 -170h-668q6 -119 79 -187.5t210 -68.5q172 0 319 41l31 -211q-170 -49 -389 -49q-282 0 -407 137.5t-125 394.5zM348 623h406q6 38 6 61q0 70 -44 113t-138 43 q-107 0 -164 -57.5t-66 -159.5zM526 1147l113 287h254l-162 -287h-205z" />
<glyph unicode="&#xea;" horiz-adv-x="1085" d="M66 512q0 124 28.5 219.5t89.5 167t164 108.5t246 37q231 0 333.5 -107t102.5 -312q0 -77 -14 -170h-668q6 -119 79 -187.5t210 -68.5q172 0 319 41l31 -211q-170 -49 -389 -49q-282 0 -407 137.5t-125 394.5zM330 1147l180 276h162l180 -276h-158l-102 127l-103 -127 h-159zM348 623h406q6 38 6 61q0 70 -44 113t-138 43q-107 0 -164 -57.5t-66 -159.5z" />
<glyph unicode="&#xeb;" horiz-adv-x="1085" d="M66 512q0 124 28.5 219.5t89.5 167t164 108.5t246 37q231 0 333.5 -107t102.5 -312q0 -77 -14 -170h-668q6 -119 79 -187.5t210 -68.5q172 0 319 41l31 -211q-170 -49 -389 -49q-282 0 -407 137.5t-125 394.5zM297 1198v205h190v-205h-190zM348 623h406q6 38 6 61 q0 70 -44 113t-138 43q-107 0 -164 -57.5t-66 -159.5zM676 1198v205h190v-205h-190z" />
<glyph unicode="&#xec;" horiz-adv-x="563" d="M-39 1434h252l113 -287h-205zM31 0v219h116v584h-116v221h383v-805h118v-219h-501z" />
<glyph unicode="&#xed;" horiz-adv-x="563" d="M31 0v219h116v584h-116v221h383v-805h118v-219h-501zM197 1147l112 287h254l-162 -287h-204z" />
<glyph unicode="&#xee;" horiz-adv-x="563" d="M-12 1147l180 276h162l180 -276h-158l-102 127l-103 -127h-159zM31 0v219h116v584h-116v221h383v-805h118v-219h-501z" />
<glyph unicode="&#xef;" horiz-adv-x="563" d="M-18 1198v205h190v-205h-190zM33 0v219h117v584h-117v221h383v-805h119v-219h-502zM360 1198v205h191v-205h-191z" />
<glyph unicode="&#xf0;" d="M66 451q0 228 114 354.5t314 126.5q86 0 163 -39.5t131 -106.5l5 2q0 87 -23.5 168t-73.5 134l-112 -113l-90 92l86 86q-69 37 -150 37q-139 0 -289 -55l-32 204q97 40 172 56t172 16q179 0 307 -78l151 150l90 -90l-135 -135q193 -193 193 -646q0 -102 -17 -193 t-56 -172.5t-97 -140.5t-145.5 -93.5t-196.5 -34.5q-214 0 -347.5 126.5t-133.5 344.5zM348 451q0 -120 60.5 -186t152.5 -66q70 0 117 34.5t66.5 90t27 125.5t-1.5 141q-93 110 -205 110q-63 0 -107.5 -22.5t-67.5 -61t-32.5 -79t-9.5 -86.5z" />
<glyph unicode="&#xf1;" horiz-adv-x="1208" d="M31 0v219h116v584h-116v221h383v-133h4q143 153 334 153q151 0 229 -91t78 -253v-481h119v-219h-488v219h103v420q0 92 -38.5 138t-125.5 46q-94 0 -215 -78v-526h102v-219h-485zM262 1229q91 186 221 186q55 0 148.5 -45t124.5 -45q65 0 133 84l67 -111 q-37 -72 -84 -117.5t-116 -45.5q-39 0 -132.5 42t-131.5 42q-36 0 -66 -16.5t-80 -69.5z" />
<glyph unicode="&#xf2;" d="M66 512q0 532 497 532q496 0 496 -532t-496 -532q-497 0 -497 532zM303 1434h252l113 -287h-205zM348 512q0 -154 48 -233.5t167 -79.5t167 79.5t48 233.5q0 152 -48 231.5t-167 79.5t-167 -79.5t-48 -231.5z" />
<glyph unicode="&#xf3;" d="M66 512q0 532 497 532q496 0 496 -532t-496 -532q-497 0 -497 532zM348 512q0 -154 48 -233.5t167 -79.5t167 79.5t48 233.5q0 152 -48 231.5t-167 79.5t-167 -79.5t-48 -231.5zM479 1147l113 287h254l-162 -287h-205z" />
<glyph unicode="&#xf4;" d="M66 512q0 532 497 532q496 0 496 -532t-496 -532q-497 0 -497 532zM301 1147l180 276h162l180 -276h-157l-103 127l-102 -127h-160zM348 512q0 -154 48 -233.5t167 -79.5t167 79.5t48 233.5q0 152 -48 231.5t-167 79.5t-167 -79.5t-48 -231.5z" />
<glyph unicode="&#xf5;" d="M66 512q0 532 497 532q496 0 496 -532t-496 -532q-497 0 -497 532zM215 1229q91 186 221 186q55 0 148.5 -45t124.5 -45q65 0 133 84l67 -111q-37 -72 -84 -117.5t-116 -45.5q-39 0 -133 42t-132 42q-36 0 -65.5 -16.5t-79.5 -69.5zM348 512q0 -154 48 -233.5t167 -79.5 t167 79.5t48 233.5q0 152 -48 231.5t-167 79.5t-167 -79.5t-48 -231.5z" />
<glyph unicode="&#xf6;" d="M66 512q0 532 497 532q496 0 496 -532t-496 -532q-497 0 -497 532zM279 1198v205h190v-205h-190zM348 512q0 -154 48 -233.5t167 -79.5t167 79.5t48 233.5q0 152 -48 231.5t-167 79.5t-167 -79.5t-48 -231.5zM657 1198v205h191v-205h-191z" />
<glyph unicode="&#xf7;" horiz-adv-x="1024" d="M86 463v160h850v-160h-850zM393 72v266h236v-266h-236zM393 748v266h236v-266h-236z" />
<glyph unicode="&#xf8;" d="M51 -8l119 141q-104 129 -104 379q0 532 497 532q189 0 311 -88l119 142l82 -66l-123 -141q107 -136 107 -379q0 -532 -496 -532q-195 0 -311 86l-119 -140zM348 512q0 -86 23 -145l340 399q-51 57 -148 57q-119 0 -167 -79.5t-48 -231.5zM414 256q51 -57 149 -57 q119 0 167 79.5t48 233.5q0 84 -24 145z" />
<glyph unicode="&#xf9;" horiz-adv-x="1208" d="M31 803v221h383v-641q0 -89 41.5 -136.5t122.5 -47.5q91 0 215 80v524h-134v221h400v-805h119v-219h-385v133h-5q-143 -153 -333 -153q-151 0 -229.5 91t-78.5 251v481h-116zM313 1434h252l113 -287h-205z" />
<glyph unicode="&#xfa;" horiz-adv-x="1208" d="M31 803v221h383v-641q0 -89 41.5 -136.5t122.5 -47.5q91 0 215 80v524h-134v221h400v-805h119v-219h-385v133h-5q-143 -153 -333 -153q-151 0 -229.5 91t-78.5 251v481h-116zM510 1147l113 287h254l-162 -287h-205z" />
<glyph unicode="&#xfb;" horiz-adv-x="1208" d="M31 803v221h383v-641q0 -89 41.5 -136.5t122.5 -47.5q91 0 215 80v524h-134v221h400v-805h119v-219h-385v133h-5q-143 -153 -333 -153q-151 0 -229.5 91t-78.5 251v481h-116zM334 1147l180 276h162l180 -276h-158l-102 127l-102 -127h-160z" />
<glyph unicode="&#xfc;" horiz-adv-x="1208" d="M31 803v221h383v-641q0 -89 41.5 -136.5t122.5 -47.5q91 0 215 80v524h-134v221h400v-805h119v-219h-385v133h-5q-143 -153 -333 -153q-151 0 -229.5 91t-78.5 251v481h-116zM309 1198v205h191v-205h-191zM688 1198v205h191v-205h-191z" />
<glyph unicode="&#xfd;" horiz-adv-x="1187" d="M31 803v221h495v-221h-116l213 -565h4l188 565h-113v221h451v-221h-74l-344 -832q-36 -87 -77 -155t-95.5 -126t-124.5 -89t-151 -31q-105 0 -181 18l23 211q55 -10 98 -10q77 0 137.5 51t88.5 137l-338 826h-84zM532 1147l113 287h254l-162 -287h-205z" />
<glyph unicode="&#xfe;" horiz-adv-x="1146" d="M31 -190h116v1402h-116v222h383v-512h4q50 55 128.5 88.5t160.5 33.5q372 0 372 -532q0 -114 -21 -207.5t-65.5 -168t-121.5 -115.5t-181 -41q-77 0 -150 30t-122 84h-4v-284h118v-220h-501v220zM414 264q79 -65 184 -65q110 0 155.5 84t45.5 229q0 69 -9.5 122.5 t-31.5 97.5t-62.5 67.5t-97.5 23.5q-101 0 -184 -63v-496z" />
<glyph unicode="&#xff;" horiz-adv-x="1187" d="M31 803v221h495v-221h-116l213 -565h4l188 565h-113v221h451v-221h-74l-344 -832q-36 -87 -77 -155t-95.5 -126t-124.5 -89t-151 -31q-105 0 -181 18l23 211q55 -10 98 -10q77 0 137.5 51t88.5 137l-338 826h-84zM332 1198v205h190v-205h-190zM711 1198v205h190v-205 h-190z" />
<glyph unicode="&#x152;" horiz-adv-x="2041" d="M66 707q0 124 17 225t60.5 192.5t112.5 153.5t178 98.5t252 36.5q185 0 283 -127v107h1007v-344h-221v122h-450v-342h569v-221h-569v-389h450v123h221v-342h-1011v109q-93 -129 -279 -129q-144 0 -253 38t-178 102.5t-112 159t-60 198t-17 229.5zM362 707q0 -74 5 -134 t18 -120t36.5 -104t58.5 -79t87 -53t119 -18q80 0 138.5 27t93.5 71.5t55.5 113.5t27.5 139t7 163q0 89 -7.5 156t-28.5 130.5t-56 104t-93 64.5t-137 24q-80 0 -138.5 -24.5t-94 -65.5t-56.5 -105.5t-28 -132t-7 -157.5z" />
<glyph unicode="&#x153;" horiz-adv-x="1798" d="M66 512q0 532 497 532q245 0 359 -163q121 163 385 163q233 0 334.5 -106.5t101.5 -312.5q0 -77 -14 -170h-660q6 -120 75.5 -188t205.5 -68q174 0 319 41l33 -211q-172 -49 -389 -49q-272 0 -391 161q-113 -161 -359 -161q-497 0 -497 532zM348 512q0 -154 48 -233.5 t167 -79.5q118 0 166.5 79t48.5 234q0 152 -48 231.5t-167 79.5t-167 -79.5t-48 -231.5zM1069 623h397q7 44 7 61q0 70 -43.5 113t-137.5 43q-203 0 -223 -217z" />
<glyph unicode="&#x178;" horiz-adv-x="1351" d="M31 1171v222h573v-222h-151l243 -481h4l244 481h-151v222h528v-222h-109l-395 -741v-211h117v-219h-516v219h117v211l-383 741h-121zM414 1505v205h190v-205h-190zM793 1505v205h190v-205h-190z" />
<glyph unicode="&#x2c6;" horiz-adv-x="860" d="M168 1147l180 276h162l180 -276h-158l-102 127l-102 -127h-160z" />
<glyph unicode="&#x2dc;" horiz-adv-x="921" d="M115 1229q91 186 221 186q55 0 148 -45t124 -45q65 0 133 84l68 -111q-84 -163 -201 -163q-39 0 -132.5 42t-131.5 42q-36 0 -65.5 -16.5t-79.5 -69.5z" />
<glyph unicode="&#x2000;" horiz-adv-x="937" />
<glyph unicode="&#x2001;" horiz-adv-x="1874" />
<glyph unicode="&#x2002;" horiz-adv-x="937" />
<glyph unicode="&#x2003;" horiz-adv-x="1874" />
<glyph unicode="&#x2004;" horiz-adv-x="624" />
<glyph unicode="&#x2005;" horiz-adv-x="468" />
<glyph unicode="&#x2006;" horiz-adv-x="312" />
<glyph unicode="&#x2007;" horiz-adv-x="312" />
<glyph unicode="&#x2008;" horiz-adv-x="234" />
<glyph unicode="&#x2009;" horiz-adv-x="374" />
<glyph unicode="&#x200a;" horiz-adv-x="104" />
<glyph unicode="&#x2010;" horiz-adv-x="1024" d="M86 432v221h850v-221h-850z" />
<glyph unicode="&#x2011;" horiz-adv-x="1024" d="M86 432v221h850v-221h-850z" />
<glyph unicode="&#x2012;" horiz-adv-x="1024" d="M86 432v221h850v-221h-850z" />
<glyph unicode="&#x2013;" horiz-adv-x="1228" d="M86 432v221h1055v-221h-1055z" />
<glyph unicode="&#x2014;" horiz-adv-x="1433" d="M86 432v221h1260v-221h-1260z" />
<glyph unicode="&#x2018;" horiz-adv-x="440" d="M86 829v297l129 267h82l-51 -267h106v-297h-266z" />
<glyph unicode="&#x2019;" horiz-adv-x="440" d="M86 1096v297h266v-297l-127 -267h-82l52 267h-109z" />
<glyph unicode="&#x201a;" horiz-adv-x="440" d="M86 0v297h266v-297l-127 -266h-82l52 266h-109z" />
<glyph unicode="&#x201c;" horiz-adv-x="890" d="M86 829v297l129 267h82l-51 -267h106v-297h-266zM537 829v297l129 267h82l-52 -267h107v-297h-266z" />
<glyph unicode="&#x201d;" horiz-adv-x="890" d="M86 1096v297h266v-297l-127 -267h-82l52 267h-109zM537 1096v297h266v-297l-127 -267h-82l51 267h-108z" />
<glyph unicode="&#x201e;" horiz-adv-x="890" d="M86 0v297h266v-297l-127 -266h-82l52 266h-109zM537 0v297h266v-297l-127 -266h-82l51 266h-108z" />
<glyph unicode="&#x2022;" horiz-adv-x="471" d="M86 362v297h266v-297h-266z" />
<glyph unicode="&#x2026;" horiz-adv-x="1341" d="M127 0v297h266v-297h-266zM537 0v297h266v-297h-266zM946 0v297h266v-297h-266z" />
<glyph unicode="&#x202f;" horiz-adv-x="374" />
<glyph unicode="&#x2039;" horiz-adv-x="778" d="M86 432v160l604 391v-283l-321 -188l321 -190v-281z" />
<glyph unicode="&#x203a;" horiz-adv-x="778" d="M86 41v281l324 190l-324 188v283l604 -391v-160z" />
<glyph unicode="&#x205f;" horiz-adv-x="468" />
<glyph unicode="&#x20ac;" horiz-adv-x="1331" d="M35 481v127h117q-5 82 -5 99q0 37 3 75h-115v129h129q17 114 57 202t110 157.5t180.5 106t256.5 36.5q242 0 502 -78v-327h-221v157q-130 27 -258 27q-255 0 -322 -281h313l-2 -129h-331q-5 -31 -5 -75q0 -21 5 -99h333l-2 -127h-309q65 -282 320 -282q134 0 258 28v156 h221v-328q-259 -75 -502 -75q-518 0 -602 501h-131z" />
<glyph unicode="&#x2122;" horiz-adv-x="1638" d="M25 1192v201h626v-201h-133v59h-100v-430h76v-133h-312v133h76v430h-100v-59h-133zM692 688v133h76v439h-76v133h299l166 -439l158 439h299v-133h-78v-439h78v-133h-314v133h68v312h-2l-168 -445h-113l-170 445h-4v-312h74v-133h-293z" />
<glyph unicode="&#xe000;" horiz-adv-x="1024" d="M0 0v1024h1024v-1024h-1024z" />
</font>
</defs>
</svg>
